<mxfile host="app.diagrams.net" agent="Mozilla/5.0 (Windows NT 10.0; Win64; x64; rv:136.0) Gecko/20100101 Firefox/136.0" version="26.1.3">
  <diagram name="PaginÄƒ-1" id="FXfXDdoXFxuAoPadg0xI">
    <mxGraphModel dx="1018" dy="528" grid="1" gridSize="10" guides="1" tooltips="1" connect="1" arrows="1" fold="1" page="1" pageScale="1" pageWidth="827" pageHeight="1169" math="0" shadow="0">
      <root>
        <mxCell id="0" />
        <mxCell id="1" parent="0" />
        <mxCell id="-KcUO6rlrHVI8XgF_A7A-8" value="" style="edgeStyle=orthogonalEdgeStyle;rounded=0;orthogonalLoop=1;jettySize=auto;html=1;" parent="1" source="-KcUO6rlrHVI8XgF_A7A-4" edge="1">
          <mxGeometry relative="1" as="geometry">
            <Array as="points">
              <mxPoint x="100" y="174" />
              <mxPoint x="100" y="320" />
            </Array>
            <mxPoint x="139" y="320" as="targetPoint" />
          </mxGeometry>
        </mxCell>
        <mxCell id="-KcUO6rlrHVI8XgF_A7A-12" value="&lt;font style=&quot;font-size: 7px;&quot;&gt;logs into their university account and uses the app for&lt;/font&gt;&lt;div&gt;&lt;font style=&quot;font-size: 7px;&quot;&gt;certificate administration&amp;nbsp;&lt;/font&gt;&lt;/div&gt;" style="text;html=1;align=center;verticalAlign=middle;whiteSpace=wrap;rounded=0;labelBorderColor=none;labelBackgroundColor=default;" parent="1" vertex="1">
          <mxGeometry x="50" y="210" width="98.5" height="60" as="geometry" />
        </mxCell>
        <mxCell id="-KcUO6rlrHVI8XgF_A7A-22" style="edgeStyle=orthogonalEdgeStyle;rounded=0;orthogonalLoop=1;jettySize=auto;html=1;entryX=1;entryY=0.5;entryDx=0;entryDy=0;" parent="1" source="-KcUO6rlrHVI8XgF_A7A-23" target="-KcUO6rlrHVI8XgF_A7A-4" edge="1">
          <mxGeometry relative="1" as="geometry">
            <Array as="points" />
          </mxGeometry>
        </mxCell>
        <mxCell id="-KcUO6rlrHVI8XgF_A7A-26" value="" style="rounded=1;whiteSpace=wrap;html=1;fillColor=#dae8fc;strokeColor=#6c8ebf;" parent="1" vertex="1">
          <mxGeometry x="350" y="661" width="120" height="60" as="geometry" />
        </mxCell>
        <mxCell id="-KcUO6rlrHVI8XgF_A7A-29" value="&lt;div&gt;&lt;font style=&quot;&quot;&gt;&lt;b&gt;Chatbot - Pubble&lt;/b&gt;&lt;/font&gt;&lt;/div&gt;&lt;div&gt;&lt;font style=&quot;font-size: 7px;&quot;&gt;[software system]&lt;/font&gt;&lt;/div&gt;&lt;div&gt;&lt;font style=&quot;font-size: 7px;&quot;&gt;&lt;br&gt;&lt;/font&gt;&lt;/div&gt;" style="text;html=1;align=center;verticalAlign=middle;whiteSpace=wrap;rounded=0;" parent="1" vertex="1">
          <mxGeometry x="349" y="671" width="120" height="50" as="geometry" />
        </mxCell>
        <mxCell id="-KcUO6rlrHVI8XgF_A7A-34" value="&lt;b&gt;&lt;font style=&quot;font-size: 14px;&quot;&gt;Progressive web app for administrating certificates and documents&amp;nbsp;&lt;/font&gt;&lt;/b&gt;" style="text;html=1;align=center;verticalAlign=middle;whiteSpace=wrap;rounded=0;labelBorderColor=light-dark(#c7bdbd, #ededed);" parent="1" vertex="1">
          <mxGeometry x="8.5" y="741" width="561.5" height="30" as="geometry" />
        </mxCell>
        <mxCell id="oTpP4JzSCvGb6ACFUDaV-1" value="" style="group" vertex="1" connectable="0" parent="1">
          <mxGeometry x="167" y="100" width="90" height="100" as="geometry" />
        </mxCell>
        <mxCell id="-KcUO6rlrHVI8XgF_A7A-2" value="" style="shape=or;whiteSpace=wrap;html=1;rotation=-90;fontStyle=3;fillColor=#dae8fc;strokeColor=#6c8ebf;" parent="oTpP4JzSCvGb6ACFUDaV-1" vertex="1">
          <mxGeometry x="15" y="30" width="60" height="80" as="geometry" />
        </mxCell>
        <mxCell id="-KcUO6rlrHVI8XgF_A7A-3" value="" style="ellipse;whiteSpace=wrap;html=1;labelBackgroundColor=none;labelBorderColor=none;fillColor=#dae8fc;strokeColor=#6c8ebf;" parent="oTpP4JzSCvGb6ACFUDaV-1" vertex="1">
          <mxGeometry x="10" width="70" height="50" as="geometry" />
        </mxCell>
        <mxCell id="-KcUO6rlrHVI8XgF_A7A-4" value="&lt;font style=&quot;font-size: 14px;&quot;&gt;&lt;b&gt;User&lt;/b&gt;&lt;/font&gt;&lt;div&gt;&lt;font style=&quot;font-size: 7px;&quot;&gt;[student, secretary, admin]&lt;/font&gt;&lt;/div&gt;" style="text;html=1;align=center;verticalAlign=middle;whiteSpace=wrap;rounded=0;" parent="oTpP4JzSCvGb6ACFUDaV-1" vertex="1">
          <mxGeometry x="7.5" y="50" width="75" height="50" as="geometry" />
        </mxCell>
        <mxCell id="oTpP4JzSCvGb6ACFUDaV-2" value="" style="group;fillColor=#f5f5f5;fontColor=#333333;strokeColor=#666666;" vertex="1" connectable="0" parent="1">
          <mxGeometry x="590" y="510" width="120" height="60" as="geometry" />
        </mxCell>
        <mxCell id="-KcUO6rlrHVI8XgF_A7A-13" value="" style="rounded=1;whiteSpace=wrap;html=1;fillColor=#f5f5f5;fontColor=#333333;strokeColor=#666666;" parent="oTpP4JzSCvGb6ACFUDaV-2" vertex="1">
          <mxGeometry width="120" height="60" as="geometry" />
        </mxCell>
        <mxCell id="-KcUO6rlrHVI8XgF_A7A-20" value="&lt;b&gt;E-mail Software&lt;/b&gt;&lt;div&gt;&lt;font style=&quot;font-size: 7px;&quot;&gt;[external e-mail system]&lt;/font&gt;&lt;/div&gt;" style="text;html=1;align=center;verticalAlign=middle;whiteSpace=wrap;rounded=0;" parent="oTpP4JzSCvGb6ACFUDaV-2" vertex="1">
          <mxGeometry width="120" height="60" as="geometry" />
        </mxCell>
        <mxCell id="oTpP4JzSCvGb6ACFUDaV-7" value="" style="edgeStyle=orthogonalEdgeStyle;rounded=0;orthogonalLoop=1;jettySize=auto;html=1;entryX=1;entryY=0.5;entryDx=0;entryDy=0;" edge="1" parent="1" source="-KcUO6rlrHVI8XgF_A7A-20" target="-KcUO6rlrHVI8XgF_A7A-23">
          <mxGeometry relative="1" as="geometry">
            <Array as="points">
              <mxPoint x="630" y="175" />
            </Array>
            <mxPoint x="540" y="220" as="sourcePoint" />
            <mxPoint x="250" y="175" as="targetPoint" />
          </mxGeometry>
        </mxCell>
        <mxCell id="-KcUO6rlrHVI8XgF_A7A-23" value="&lt;font style=&quot;font-size: 8px;&quot;&gt;Sends e-mails to&lt;/font&gt;" style="text;html=1;align=center;verticalAlign=middle;whiteSpace=wrap;rounded=0;labelBackgroundColor=default;" parent="1" vertex="1">
          <mxGeometry x="330" y="150" width="110" height="50" as="geometry" />
        </mxCell>
        <mxCell id="oTpP4JzSCvGb6ACFUDaV-8" value="" style="rounded=0;whiteSpace=wrap;html=1;" vertex="1" parent="1">
          <mxGeometry x="140" y="280" width="340" height="310" as="geometry" />
        </mxCell>
        <mxCell id="oTpP4JzSCvGb6ACFUDaV-17" style="edgeStyle=orthogonalEdgeStyle;rounded=0;orthogonalLoop=1;jettySize=auto;html=1;entryX=0;entryY=0.5;entryDx=0;entryDy=0;" edge="1" parent="1" source="oTpP4JzSCvGb6ACFUDaV-9" target="oTpP4JzSCvGb6ACFUDaV-13">
          <mxGeometry relative="1" as="geometry" />
        </mxCell>
        <mxCell id="oTpP4JzSCvGb6ACFUDaV-9" value="&lt;div&gt;Web Application&lt;/div&gt;&lt;div&gt;&lt;font style=&quot;font-size: 6px;&quot;&gt;Delivers static and dynamic content to user through the browser&lt;/font&gt;&lt;/div&gt;" style="rounded=1;whiteSpace=wrap;html=1;fillColor=#dae8fc;strokeColor=#6c8ebf;arcSize=6;" vertex="1" parent="1">
          <mxGeometry x="147.75" y="290" width="120" height="60" as="geometry" />
        </mxCell>
        <mxCell id="oTpP4JzSCvGb6ACFUDaV-11" value="&lt;div&gt;DataBase&lt;/div&gt;&lt;font style=&quot;font-size: 6px; line-height: 100%;&quot;&gt;Stores User Info, form data and documents&lt;/font&gt;" style="shape=cylinder3;whiteSpace=wrap;html=1;boundedLbl=1;backgroundOutline=1;size=15;fillColor=#d5e8d4;strokeColor=#82b366;" vertex="1" parent="1">
          <mxGeometry x="147.75" y="500" width="113" height="80" as="geometry" />
        </mxCell>
        <mxCell id="oTpP4JzSCvGb6ACFUDaV-25" style="edgeStyle=orthogonalEdgeStyle;rounded=0;orthogonalLoop=1;jettySize=auto;html=1;entryX=0;entryY=0.5;entryDx=0;entryDy=0;" edge="1" parent="1" source="oTpP4JzSCvGb6ACFUDaV-12" target="-KcUO6rlrHVI8XgF_A7A-20">
          <mxGeometry relative="1" as="geometry" />
        </mxCell>
        <mxCell id="oTpP4JzSCvGb6ACFUDaV-27" style="edgeStyle=orthogonalEdgeStyle;rounded=0;orthogonalLoop=1;jettySize=auto;html=1;entryX=0.5;entryY=0;entryDx=0;entryDy=0;" edge="1" parent="1" source="oTpP4JzSCvGb6ACFUDaV-12" target="-KcUO6rlrHVI8XgF_A7A-26">
          <mxGeometry relative="1" as="geometry" />
        </mxCell>
        <mxCell id="oTpP4JzSCvGb6ACFUDaV-12" value="&lt;div&gt;BackEnd / Server&lt;/div&gt;&lt;font style=&quot;font-size: 6px;&quot;&gt;Provides database documents interation and handles connection to Chatbot&lt;/font&gt;" style="rounded=1;whiteSpace=wrap;html=1;fillColor=#dae8fc;strokeColor=#6c8ebf;arcSize=6;" vertex="1" parent="1">
          <mxGeometry x="350" y="510" width="120" height="60" as="geometry" />
        </mxCell>
        <mxCell id="oTpP4JzSCvGb6ACFUDaV-20" style="edgeStyle=orthogonalEdgeStyle;rounded=0;orthogonalLoop=1;jettySize=auto;html=1;entryX=0.5;entryY=0;entryDx=0;entryDy=0;" edge="1" parent="1" source="oTpP4JzSCvGb6ACFUDaV-13" target="oTpP4JzSCvGb6ACFUDaV-12">
          <mxGeometry relative="1" as="geometry" />
        </mxCell>
        <mxCell id="oTpP4JzSCvGb6ACFUDaV-13" value="BackEnd / AuthLogin&lt;br&gt;&lt;font style=&quot;font-size: 6px;&quot;&gt;Provides login API and session verification and authentication&lt;/font&gt;" style="rounded=1;whiteSpace=wrap;html=1;fillColor=#dae8fc;strokeColor=#6c8ebf;arcSize=6;" vertex="1" parent="1">
          <mxGeometry x="350" y="400" width="120" height="60" as="geometry" />
        </mxCell>
        <mxCell id="oTpP4JzSCvGb6ACFUDaV-18" style="edgeStyle=orthogonalEdgeStyle;rounded=0;orthogonalLoop=1;jettySize=auto;html=1;entryX=0;entryY=0.5;entryDx=0;entryDy=0;" edge="1" parent="1" source="oTpP4JzSCvGb6ACFUDaV-14" target="oTpP4JzSCvGb6ACFUDaV-13">
          <mxGeometry relative="1" as="geometry">
            <Array as="points">
              <mxPoint x="310" y="320" />
              <mxPoint x="310" y="430" />
            </Array>
          </mxGeometry>
        </mxCell>
        <mxCell id="oTpP4JzSCvGb6ACFUDaV-24" style="edgeStyle=orthogonalEdgeStyle;rounded=0;orthogonalLoop=1;jettySize=auto;html=1;entryX=0.072;entryY=0.017;entryDx=0;entryDy=0;entryPerimeter=0;" edge="1" parent="1" source="oTpP4JzSCvGb6ACFUDaV-14" target="oTpP4JzSCvGb6ACFUDaV-12">
          <mxGeometry relative="1" as="geometry">
            <Array as="points">
              <mxPoint x="400" y="360" />
              <mxPoint x="290" y="360" />
              <mxPoint x="290" y="510" />
              <mxPoint x="350" y="510" />
            </Array>
          </mxGeometry>
        </mxCell>
        <mxCell id="oTpP4JzSCvGb6ACFUDaV-14" value="&lt;div&gt;Mobile App&lt;/div&gt;&lt;div&gt;&lt;font style=&quot;font-size: 6px;&quot;&gt;Delivers static and dynamic content to user through the mobile app&lt;/font&gt;&lt;/div&gt;" style="rounded=1;whiteSpace=wrap;html=1;fillColor=#dae8fc;strokeColor=#6c8ebf;arcSize=6;" vertex="1" parent="1">
          <mxGeometry x="340" y="290" width="120" height="60" as="geometry" />
        </mxCell>
        <mxCell id="oTpP4JzSCvGb6ACFUDaV-15" style="edgeStyle=orthogonalEdgeStyle;rounded=0;orthogonalLoop=1;jettySize=auto;html=1;entryX=0.081;entryY=0.996;entryDx=0;entryDy=0;entryPerimeter=0;exitX=0.001;exitY=0.176;exitDx=0;exitDy=0;exitPerimeter=0;" edge="1" parent="1" source="oTpP4JzSCvGb6ACFUDaV-12" target="oTpP4JzSCvGb6ACFUDaV-9">
          <mxGeometry relative="1" as="geometry">
            <Array as="points">
              <mxPoint x="280" y="521" />
              <mxPoint x="280" y="450" />
              <mxPoint x="158" y="450" />
            </Array>
          </mxGeometry>
        </mxCell>
        <mxCell id="oTpP4JzSCvGb6ACFUDaV-16" value="&lt;div&gt;&lt;font style=&quot;font-size: 6px;&quot;&gt;Provides HTML, CSS &amp;amp; JS&lt;/font&gt;&lt;/div&gt;&lt;div&gt;&lt;font style=&quot;font-size: 6px;&quot;&gt;for web page&lt;/font&gt;&lt;/div&gt;" style="edgeLabel;html=1;align=center;verticalAlign=middle;resizable=0;points=[];labelBackgroundColor=#FFFFFF;" vertex="1" connectable="0" parent="oTpP4JzSCvGb6ACFUDaV-15">
          <mxGeometry x="0.5904" y="1" relative="1" as="geometry">
            <mxPoint x="43" y="28" as="offset" />
          </mxGeometry>
        </mxCell>
        <mxCell id="oTpP4JzSCvGb6ACFUDaV-19" value="&lt;div&gt;&lt;font style=&quot;font-size: 6px;&quot;&gt;Requests login&lt;/font&gt;&lt;/div&gt;&lt;div&gt;&lt;font style=&quot;font-size: 6px;&quot;&gt;into platform&lt;/font&gt;&lt;/div&gt;" style="edgeLabel;html=1;align=center;verticalAlign=middle;resizable=0;points=[];labelBackgroundColor=#FFFFFF;" vertex="1" connectable="0" parent="1">
          <mxGeometry x="310.00213289708495" y="379.9995902439915" as="geometry" />
        </mxCell>
        <mxCell id="oTpP4JzSCvGb6ACFUDaV-21" value="&lt;div&gt;&lt;font style=&quot;font-size: 6px;&quot;&gt;Provides authentication&lt;/font&gt;&lt;/div&gt;&lt;div&gt;&lt;font style=&quot;font-size: 6px;&quot;&gt;tokens and session information&lt;/font&gt;&lt;/div&gt;" style="edgeLabel;html=1;align=center;verticalAlign=middle;resizable=0;points=[];labelBackgroundColor=#FFFFFF;" vertex="1" connectable="0" parent="1">
          <mxGeometry x="409.9999426928356" y="479.9982030287726" as="geometry" />
        </mxCell>
        <mxCell id="oTpP4JzSCvGb6ACFUDaV-22" style="edgeStyle=orthogonalEdgeStyle;rounded=0;orthogonalLoop=1;jettySize=auto;html=1;entryX=0.07;entryY=0.028;entryDx=0;entryDy=0;entryPerimeter=0;" edge="1" parent="1" source="oTpP4JzSCvGb6ACFUDaV-9" target="oTpP4JzSCvGb6ACFUDaV-12">
          <mxGeometry relative="1" as="geometry">
            <Array as="points">
              <mxPoint x="208" y="360" />
              <mxPoint x="290" y="360" />
              <mxPoint x="290" y="512" />
            </Array>
          </mxGeometry>
        </mxCell>
        <mxCell id="oTpP4JzSCvGb6ACFUDaV-26" value="&lt;font style=&quot;font-size: 8px;&quot;&gt;Sends e-mails using&lt;/font&gt;" style="text;html=1;align=center;verticalAlign=middle;whiteSpace=wrap;rounded=0;labelBackgroundColor=default;" vertex="1" parent="1">
          <mxGeometry x="470" y="515" width="110" height="50" as="geometry" />
        </mxCell>
        <mxCell id="-KcUO6rlrHVI8XgF_A7A-33" value="&lt;span style=&quot;font-size: 7px;&quot;&gt;Requests additional help regarding documents and certificates&lt;/span&gt;" style="text;html=1;align=center;verticalAlign=middle;whiteSpace=wrap;rounded=0;labelBorderColor=none;labelBackgroundColor=default;" parent="1" vertex="1">
          <mxGeometry x="360.75" y="590" width="98.5" height="60" as="geometry" />
        </mxCell>
        <mxCell id="oTpP4JzSCvGb6ACFUDaV-28" style="edgeStyle=orthogonalEdgeStyle;rounded=0;orthogonalLoop=1;jettySize=auto;html=1;entryX=1;entryY=0.5;entryDx=0;entryDy=0;entryPerimeter=0;" edge="1" parent="1" source="oTpP4JzSCvGb6ACFUDaV-12" target="oTpP4JzSCvGb6ACFUDaV-11">
          <mxGeometry relative="1" as="geometry" />
        </mxCell>
        <mxCell id="oTpP4JzSCvGb6ACFUDaV-29" style="edgeStyle=orthogonalEdgeStyle;rounded=0;orthogonalLoop=1;jettySize=auto;html=1;entryX=1;entryY=0.5;entryDx=0;entryDy=0;entryPerimeter=0;" edge="1" parent="1" source="oTpP4JzSCvGb6ACFUDaV-13" target="oTpP4JzSCvGb6ACFUDaV-11">
          <mxGeometry relative="1" as="geometry">
            <Array as="points">
              <mxPoint x="305" y="450" />
              <mxPoint x="305" y="540" />
            </Array>
          </mxGeometry>
        </mxCell>
        <mxCell id="oTpP4JzSCvGb6ACFUDaV-30" value="&lt;div&gt;&lt;font style=&quot;font-size: 6px;&quot;&gt;Makes DB &lt;/font&gt;&lt;font style=&quot;font-size: 6px;&quot;&gt;read&lt;/font&gt;&lt;/div&gt;&lt;div&gt;&lt;font style=&quot;font-size: 6px;&quot;&gt;write requests&lt;/font&gt;&lt;/div&gt;" style="edgeLabel;html=1;align=center;verticalAlign=middle;resizable=0;points=[];labelBackgroundColor=#FFFFFF;" vertex="1" connectable="0" parent="1">
          <mxGeometry x="309.9999426928356" y="539.9982030287727" as="geometry" />
        </mxCell>
        <mxCell id="oTpP4JzSCvGb6ACFUDaV-31" style="edgeStyle=orthogonalEdgeStyle;rounded=0;orthogonalLoop=1;jettySize=auto;html=1;entryX=0.5;entryY=0;entryDx=0;entryDy=0;" edge="1" parent="1" source="-KcUO6rlrHVI8XgF_A7A-4" target="oTpP4JzSCvGb6ACFUDaV-9">
          <mxGeometry relative="1" as="geometry">
            <Array as="points">
              <mxPoint x="208" y="245" />
            </Array>
          </mxGeometry>
        </mxCell>
        <mxCell id="oTpP4JzSCvGb6ACFUDaV-32" style="edgeStyle=orthogonalEdgeStyle;rounded=0;orthogonalLoop=1;jettySize=auto;html=1;entryX=0.5;entryY=0;entryDx=0;entryDy=0;" edge="1" parent="1" source="-KcUO6rlrHVI8XgF_A7A-4" target="oTpP4JzSCvGb6ACFUDaV-14">
          <mxGeometry relative="1" as="geometry">
            <Array as="points">
              <mxPoint x="212" y="230" />
              <mxPoint x="400" y="230" />
            </Array>
          </mxGeometry>
        </mxCell>
        <mxCell id="oTpP4JzSCvGb6ACFUDaV-33" value="&lt;div&gt;User&lt;/div&gt;" style="edgeLabel;html=1;align=center;verticalAlign=middle;resizable=0;points=[];" vertex="1" connectable="0" parent="oTpP4JzSCvGb6ACFUDaV-32">
          <mxGeometry x="-0.3707" y="-1" relative="1" as="geometry">
            <mxPoint x="-58" as="offset" />
          </mxGeometry>
        </mxCell>
        <mxCell id="oTpP4JzSCvGb6ACFUDaV-34" value="&lt;div&gt;&lt;font style=&quot;font-size: 6px;&quot;&gt;Sends&lt;/font&gt;&lt;/div&gt;&lt;div&gt;&lt;font style=&quot;font-size: 6px;&quot;&gt;requests&lt;/font&gt;&lt;/div&gt;" style="edgeLabel;html=1;align=center;verticalAlign=middle;resizable=0;points=[];labelBackgroundColor=#FFFFFF;" vertex="1" connectable="0" parent="1">
          <mxGeometry x="289.25213289708495" y="419.9995902439915" as="geometry" />
        </mxCell>
      </root>
    </mxGraphModel>
  </diagram>
</mxfile>
